<?xml version="1.0" encoding="utf-8"?>
<!-- Uploaded to: SVG Repo, www.svgrepo.com, Generator: SVG Repo Mixer Tools -->
<svg width="800px" height="800px" viewBox="0 0 1024 1024" class="icon"  version="1.1" xmlns="http://www.w3.org/2000/svg"><path d="M114.8 561.9l-0.8 92.6 151.1-92.6h291.3c39.4 0 71.3-32.6 71.3-72.9V206c0-40.3-31.9-72.9-71.3-72.9H114.8c-39.4 0-71.3 32.6-71.3 72.9v283c0 40.3 31.9 72.9 71.3 72.9z" fill="#9ED5E4" /><path d="M114 669.1c-2.5 0-4.9-0.6-7.1-1.9-4.6-2.6-7.4-7.5-7.4-12.7l0.7-79.3C59.8 568.1 29 532.2 29 489V206c0-48.2 38.5-87.4 85.8-87.4h441.5c47.3 0 85.8 39.2 85.8 87.4v283c0 48.2-38.5 87.4-85.8 87.4H269.2l-147.6 90.5c-2.4 1.4-5 2.2-7.6 2.2z m0.8-521.5C83.5 147.6 58 173.8 58 206v283c0 32.2 25.5 58.4 56.9 58.4 3.9 0 7.6 1.5 10.3 4.3 2.7 2.7 4.2 6.5 4.2 10.3l-0.6 66.5 128.8-79c2.3-1.4 4.9-2.1 7.6-2.1h291.3c31.4 0 56.9-26.2 56.9-58.4V206c0-32.2-25.5-58.4-56.9-58.4H114.8z" fill="#154B8B" /><path d="M890.1 773.1l1.1 117.4-195.6-117.4H318.4c-51 0-92.4-41.4-92.4-92.4V322.1c0-51 41.4-92.4 92.4-92.4h571.7c51 0 92.4 41.4 92.4 92.4v358.7c0 50.9-41.3 92.3-92.4 92.3z" fill="#FAFCFC" /><path d="M891.2 905c-2.6 0-5.2-0.7-7.5-2.1L691.6 787.6H318.4c-58.9 0-106.9-47.9-106.9-106.9V322.1c0-58.9 47.9-106.9 106.9-106.9h571.7c58.9 0 106.9 47.9 106.9 106.9v358.7c0 54-40.2 98.7-92.2 105.9l1 103.8c0 5.2-2.7 10.1-7.3 12.7-2.3 1.1-4.8 1.8-7.3 1.8zM318.4 244.2c-42.9 0-77.9 34.9-77.9 77.9v358.7c0 42.9 34.9 77.9 77.9 77.9h377.2c2.6 0 5.2 0.7 7.5 2.1l173.5 104.1-0.8-91.5c0-3.9 1.5-7.6 4.2-10.3 2.7-2.7 6.4-4.3 10.3-4.3 42.9 0 77.9-34.9 77.9-77.9V322.1c0-42.9-34.9-77.9-77.9-77.9H318.4z" fill="#154B8B" /><path d="M376 499.8a47.3 44.8 0 1 0 94.6 0 47.3 44.8 0 1 0-94.6 0Z" fill="#144884" /><path d="M557 499.8a47.3 44.8 0 1 0 94.6 0 47.3 44.8 0 1 0-94.6 0Z" fill="#144884" /><path d="M737.9 499.8a47.3 44.8 0 1 0 94.6 0 47.3 44.8 0 1 0-94.6 0Z" fill="#144884" /></svg>